Coordinates
version=1
nRows=32
nColumns=12
inDegrees=yes

Units are S.I. units (second, meters, Newtons, ...)
Angles are in degrees

endheader
time	SC_y	SC_z	SC_x	AC_y	AC_z	AC_x	GH_y	GH_z	GH_yy	EL_x	PS_y
       0.0              -21.59          14.16          74.03          45.71          2.739         -6.481         -88.43          76.46          3.288          29.73          123.4
   0.02118               -21.6          14.16          74.03          45.72          2.739         -6.482         -88.41          76.45          3.298          29.74          123.4
   0.04237               -21.6          14.16          74.03          45.72          2.739         -6.483         -88.39          76.43          3.309          29.74          123.4
   0.06355              -21.61          14.16          74.04          45.72          2.739         -6.484         -88.37          76.42           3.32          29.75          123.4
   0.08473              -21.61          14.16          74.04          45.73          2.739         -6.484         -88.35           76.4          3.332          29.76          123.4
    0.1059              -21.62          14.16          74.04          45.73          2.739         -6.485         -88.33          76.38          3.344          29.77          123.4
    0.1271              -21.62          14.16          74.04          45.73          2.739         -6.486         -88.31          76.37          3.358          29.79          123.4
    0.1483              -21.63          14.16          74.04          45.74          2.739         -6.487         -88.28          76.35          3.372           29.8          123.5
    0.1695              -21.64          14.16          74.04          45.74          2.739         -6.489         -88.25          76.33          3.388          29.81          123.5
    0.1907              -21.65          14.16          74.05          45.75          2.739          -6.49         -88.22          76.31          3.404          29.83          123.5
    0.2118              -21.65          14.16          74.05          45.75          2.739         -6.491         -88.19          76.28          3.422          29.84          123.5
     0.233              -21.66          14.16          74.05          45.76          2.739         -6.492         -88.16          76.26          3.441          29.86          123.5
    0.2542              -21.67          14.16          74.05          45.76          2.739         -6.494         -88.12          76.23          3.462          29.88          123.5
    0.2754              -21.68          14.16          74.06          45.77          2.739         -6.496         -88.09           76.2          3.484          29.89          123.5
    0.2966              -21.69          14.16          74.06          45.78          2.739         -6.497         -88.04          76.17          3.508          29.91          123.5
    0.3178              -21.71          14.15          74.06          45.78          2.739         -6.499          -88.0          76.13          3.535          29.94          123.5
    0.3389              -21.72          14.15          74.07          45.79          2.739         -6.501         -87.95           76.1          3.563          29.96          123.5
    0.3601              -21.73          14.15          74.07           45.8          2.738         -6.504          -87.9          76.06          3.594          29.99          123.6
    0.3813              -21.75          14.15          74.08          45.81          2.738         -6.506         -87.84          76.01          3.628          30.02          123.6
    0.4025              -21.77          14.15          74.08          45.82          2.738         -6.509         -87.77          75.96          3.665          30.05          123.6
    0.4237              -21.78          14.15          74.09          45.83          2.738         -6.512          -87.7          75.91          3.706          30.08          123.6
    0.4449              -21.81          14.15          74.09          45.85          2.738         -6.515         -87.62          75.85           3.75          30.12          123.6
     0.466              -21.83          14.15           74.1          45.86          2.738         -6.519         -87.54          75.79            3.8          30.16          123.7
    0.4872              -21.85          14.15          74.11          45.87          2.738         -6.523         -87.44          75.71          3.855          30.21          123.7
    0.5084              -21.88          14.15          74.11          45.89          2.738         -6.527         -87.34          75.63          3.916          30.26          123.7
    0.5296              -21.91          14.14          74.12          45.91          2.738         -6.532         -87.22          75.54          3.984          30.32          123.7
    0.5508              -21.95          14.14          74.13          45.93          2.738         -6.537         -87.09          75.44           4.06          30.38          123.8
     0.572              -21.99          14.14          74.14          45.96          2.737         -6.544         -86.94          75.33          4.145          30.46          123.8
    0.5931              -22.03          14.14          74.16          45.99          2.737         -6.551         -86.77           75.2          4.242          30.54          123.9
    0.6143              -22.09          14.14          74.17          46.02          2.737         -6.559         -86.58          75.06          4.352          30.63          123.9
    0.6355              -22.14          14.13          74.19          46.05          2.737         -6.568         -86.36          74.89          4.477          30.74          124.0
    0.6567              -22.21          14.13          74.21          46.09          2.736         -6.578         -86.11           74.7          4.621          30.86          124.0
